<svg width="24" height="24" viewBox="0 0 24 24" fill="none" xmlns="http://www.w3.org/2000/svg">
<g opacity="0.4">
<path d="M6.49662 0H17.5034C21.0857 0 24 2.9143 24 6.49657V17.5036C24 21.0857 21.0857 24 17.5034 24H6.49643C2.91435 24 4.57764e-05 21.0857 4.57764e-05 17.5036V6.49657C4.57764e-05 2.9143 2.91435 0 6.49662 0V0ZM1.40703 17.5036C1.40703 20.3098 3.69016 22.593 6.49662 22.593H17.5034C20.3099 22.593 22.593 20.3098 22.593 17.5036V6.49657C22.593 3.69012 20.3099 1.40698 17.5034 1.40698H6.49643C3.69016 1.40698 1.40703 3.69012 1.40703 6.49657V17.5036Z" fill="#8B8B8B"/>
<path d="M12.0002 5.4375C15.6187 5.4375 18.5625 8.38128 18.5625 11.9998C18.5625 15.6183 15.6187 18.5621 12.0002 18.5621C8.38167 18.5621 5.43789 15.6183 5.43789 11.9998C5.43789 8.38128 8.38167 5.4375 12.0002 5.4375V5.4375ZM12.0002 17.1551C14.8427 17.1551 17.1555 14.8425 17.1555 11.9998C17.1555 9.15728 14.8427 6.84448 12.0002 6.84448C9.15749 6.84448 6.84487 9.15728 6.84487 11.9998C6.84487 14.8425 9.15749 17.1551 12.0002 17.1551V17.1551Z" fill="#8B8B8B"/>
<path d="M5.28064 3.10742C6.34998 3.10742 7.21973 3.97735 7.21973 5.04651C7.21973 6.11584 6.34998 6.98577 5.28064 6.98577C4.21131 6.98577 3.34138 6.11584 3.34138 5.04651C3.34138 3.97717 4.21131 3.10742 5.28064 3.10742ZM5.28064 5.57861C5.57398 5.57861 5.81275 5.33984 5.81275 5.04651C5.81275 4.75299 5.57398 4.5144 5.28064 4.5144C4.98713 4.5144 4.74836 4.75299 4.74836 5.04651C4.74836 5.33984 4.98713 5.57861 5.28064 5.57861Z" fill="#8B8B8B"/>
</g>
</svg>
