<svg width="24" height="24" viewBox="0 0 24 24" fill="none" xmlns="http://www.w3.org/2000/svg">
<path d="M6.49662 0H17.5034C21.0857 0 24 2.9143 24 6.49657V17.5036C24 21.0857 21.0857 24 17.5034 24H6.49643C2.91435 24 4.57764e-05 21.0857 4.57764e-05 17.5036V6.49657C4.57764e-05 2.9143 2.91435 0 6.49662 0V0ZM1.40703 17.5036C1.40703 20.3098 3.69016 22.593 6.49662 22.593H17.5034C20.3099 22.593 22.593 20.3098 22.593 17.5036V6.49657C22.593 3.69012 20.3099 1.40698 17.5034 1.40698H6.49643C3.69016 1.40698 1.40703 3.69012 1.40703 6.49657V17.5036Z" fill="url(#paint0_linear)"/>
<path d="M12.0002 5.43762C15.6187 5.43762 18.5625 8.3814 18.5625 11.9999C18.5625 15.6185 15.6187 18.5622 12.0002 18.5622C8.38167 18.5622 5.43789 15.6185 5.43789 11.9999C5.43789 8.3814 8.38167 5.43762 12.0002 5.43762ZM12.0002 17.1553C14.8427 17.1553 17.1555 14.8426 17.1555 11.9999C17.1555 9.1574 14.8427 6.8446 12.0002 6.8446C9.15749 6.8446 6.84487 9.1574 6.84487 11.9999C6.84487 14.8426 9.15749 17.1553 12.0002 17.1553Z" fill="url(#paint1_linear)"/>
<path d="M5.28064 3.10706C6.34998 3.10706 7.21973 3.97699 7.21973 5.04614C7.21973 6.11547 6.34998 6.98541 5.28064 6.98541C4.21131 6.98541 3.34138 6.11547 3.34138 5.04614C3.34138 3.9768 4.21131 3.10706 5.28064 3.10706ZM5.28064 5.57824C5.57398 5.57824 5.81275 5.33947 5.81275 5.04614C5.81275 4.75262 5.57398 4.51404 5.28064 4.51404C4.98713 4.51404 4.74836 4.75262 4.74836 5.04614C4.74836 5.33947 4.98713 5.57824 5.28064 5.57824Z" fill="url(#paint2_linear)"/>
<defs>
<linearGradient id="paint0_linear" x1="4.4841e-05" y1="24" x2="51.5806" y2="18.1237" gradientUnits="userSpaceOnUse">
<stop stop-color="#B48C52"/>
<stop offset="1" stop-color="#ECC893"/>
</linearGradient>
<linearGradient id="paint1_linear" x1="5.43789" y1="18.5622" x2="33.6452" y2="15.3487" gradientUnits="userSpaceOnUse">
<stop stop-color="#B48C52"/>
<stop offset="1" stop-color="#ECC893"/>
</linearGradient>
<linearGradient id="paint2_linear" x1="3.34138" y1="6.98541" x2="11.6767" y2="6.03581" gradientUnits="userSpaceOnUse">
<stop stop-color="#B48C52"/>
<stop offset="1" stop-color="#ECC893"/>
</linearGradient>
</defs>
</svg>
