<svg width="24" height="24" viewBox="0 0 24 24" fill="none" xmlns="http://www.w3.org/2000/svg">
<path d="M7.65579 13.5018C8.19624 14.2411 8.81725 14.895 9.61951 15.3576C10.528 15.8819 11.5061 16.04 12.5377 15.9918C13.0197 15.9685 13.1647 15.8416 13.1869 15.3567C13.2018 15.0245 13.2398 14.6932 13.4018 14.3947C13.561 14.102 13.8025 14.0466 14.0812 14.2287C14.2199 14.3207 14.3367 14.4359 14.4473 14.5591C14.7188 14.8583 14.9817 15.1683 15.2629 15.4577C15.6166 15.8212 16.036 16.0354 16.5622 15.9918L18.6011 15.9927C18.9293 15.9702 19.0999 15.5641 18.9115 15.1932C18.7789 14.9342 18.6048 14.7039 18.4207 14.4804C18.0041 13.975 17.5131 13.5443 17.0489 13.0872C16.6305 12.6747 16.6039 12.4353 16.94 11.9593C17.3079 11.4394 17.7023 10.9402 18.073 10.4231C18.4188 9.93997 18.7737 9.45756 18.9548 8.8798C19.0707 8.51098 18.9681 8.34848 18.5951 8.28327C18.5305 8.27258 18.4633 8.27258 18.3978 8.27258L16.1792 8.26978C15.906 8.26539 15.7556 8.386 15.6591 8.63053C15.5282 8.96113 15.3938 9.29156 15.2379 9.60954C14.886 10.333 14.4923 11.0322 13.9404 11.6235C13.8183 11.7537 13.6829 11.919 13.4796 11.8512C13.2258 11.7574 13.1506 11.3343 13.1549 11.1914L13.153 8.60564C13.1037 8.237 13.0221 8.07169 12.6588 8H10.3544C10.0476 8 9.89277 8.12078 9.72819 8.31448C9.63444 8.42719 9.6051 8.49941 9.79989 8.53692C10.1818 8.61002 10.3987 8.86016 10.4553 9.24704C10.5464 9.866 10.5402 10.4874 10.4872 11.1081C10.4721 11.2894 10.4412 11.4699 10.3702 11.6396C10.2589 11.9066 10.0784 11.9602 9.84225 11.796C9.62923 11.6477 9.47888 11.4387 9.33097 11.2289C8.77819 10.4401 8.33773 9.59008 7.97766 8.69679C7.87419 8.43858 7.69468 8.2824 7.42402 8.27784C6.75874 8.26715 6.09276 8.26557 5.42662 8.27872C5.02679 8.2859 4.90734 8.48241 5.07106 8.84947C5.79554 10.4776 6.60231 12.0601 7.65579 13.5018Z" fill="url(#paint0_linear)"/>
<path d="M6.49662 0H17.5034C21.0857 0 24 2.9143 24 6.49657V17.5036C24 21.0857 21.0857 24 17.5034 24H6.49643C2.91435 24 4.57764e-05 21.0857 4.57764e-05 17.5036V6.49657C4.57764e-05 2.9143 2.91435 0 6.49662 0V0ZM1.40703 17.5036C1.40703 20.3098 3.69016 22.593 6.49662 22.593H17.5034C20.3099 22.593 22.593 20.3098 22.593 17.5036V6.49657C22.593 3.69012 20.3099 1.40698 17.5034 1.40698H6.49643C3.69016 1.40698 1.40703 3.69012 1.40703 6.49657V17.5036Z" fill="url(#paint1_linear)"/>
<defs>
<linearGradient id="paint0_linear" x1="19" y1="16" x2="-10.3141" y2="10.1557" gradientUnits="userSpaceOnUse">
<stop stop-color="#B48C52"/>
<stop offset="1" stop-color="#ECC893"/>
</linearGradient>
<linearGradient id="paint1_linear" x1="4.4841e-05" y1="24" x2="51.5806" y2="18.1237" gradientUnits="userSpaceOnUse">
<stop stop-color="#B48C52"/>
<stop offset="1" stop-color="#ECC893"/>
</linearGradient>
</defs>
</svg>
