<svg width="22" height="22" viewBox="0 0 22 22" fill="none" xmlns="http://www.w3.org/2000/svg">
<path d="M9.60318 10.9229L10.7217 12.0416C10.8674 12.1871 11.1036 12.1871 11.2491 12.0416L12.3678 10.9229C12.4376 10.8529 12.4769 10.7581 12.4769 10.6592V5.59326H9.49391V10.6592C9.49391 10.7581 9.53319 10.8529 9.60318 10.9229V10.9229Z" fill="url(#paint0_linear)"/>
<path d="M6.53998 0.889343L7.99789 4.38861C8.11371 4.66656 8.38528 4.84767 8.6864 4.8475H13.4714C13.7723 4.8475 13.8571 4.66656 13.9729 4.38861L15.4308 0.889343C15.4788 0.7742 15.4661 0.642776 15.3969 0.539047C15.3278 0.435318 15.2114 0.373047 15.0867 0.373047H6.88406C6.75952 0.373047 6.64304 0.435318 6.57388 0.539047C6.50473 0.642776 6.49197 0.7742 6.53998 0.889343Z" fill="url(#paint1_linear)"/>
<path d="M1.65245 6.46896L0.861725 7.26003C0.716034 7.40572 0.716034 7.64171 0.861725 7.7874L10.3263 17.2521C10.5012 17.427 10.7382 17.5252 10.9854 17.5252C11.2326 17.5252 11.4698 17.427 11.6445 17.2521L21.1092 7.7874C21.2548 7.64171 21.2548 7.40572 21.1092 7.26003L20.3183 6.46896C20.2484 6.39914 20.1535 6.35986 20.0547 6.35986C19.9556 6.35986 19.8608 6.39914 19.791 6.46896L11.2491 15.011C11.1036 15.1567 10.8674 15.1567 10.7217 15.011L2.17982 6.46896C2.10983 6.39914 2.015 6.35986 1.91614 6.35986C1.81728 6.35986 1.72244 6.39914 1.65245 6.46896Z" fill="url(#paint2_linear)"/>
<path d="M21.4261 13.4238H17.5151C17.3953 13.4238 17.2828 13.4814 17.2128 13.5784L12.5887 19.9811C12.5185 20.0783 12.4061 20.1357 12.2864 20.1357H9.68459C9.56474 20.1357 9.45229 20.0783 9.38229 19.9811L4.75812 13.5784C4.68796 13.4814 4.5755 13.4238 4.45583 13.4238H0.54483C0.338882 13.4238 0.171875 13.5908 0.171875 13.7968V21.6272C0.171875 21.8331 0.338882 22.0001 0.54483 22.0001H21.4261C21.6321 22.0001 21.7989 21.8331 21.7989 21.6272V13.7968C21.7989 13.5908 21.6321 13.4238 21.4261 13.4238V13.4238Z" fill="url(#paint3_linear)"/>
<defs>
<linearGradient id="paint0_linear" x1="12.4769" y1="12.1507" x2="6.00009" y2="11.8151" gradientUnits="userSpaceOnUse">
<stop stop-color="#B48C52"/>
<stop offset="1" stop-color="#ECC893"/>
</linearGradient>
<linearGradient id="paint1_linear" x1="15.4595" y1="4.84751" x2="-3.06032" y2="0.628069" gradientUnits="userSpaceOnUse">
<stop stop-color="#B48C52"/>
<stop offset="1" stop-color="#ECC893"/>
</linearGradient>
<linearGradient id="paint2_linear" x1="21.2184" y1="17.5252" x2="-21.476" y2="8.60964" gradientUnits="userSpaceOnUse">
<stop stop-color="#B48C52"/>
<stop offset="1" stop-color="#ECC893"/>
</linearGradient>
<linearGradient id="paint3_linear" x1="21.7989" y1="22.0001" x2="-21.6953" y2="9.5048" gradientUnits="userSpaceOnUse">
<stop stop-color="#B48C52"/>
<stop offset="1" stop-color="#ECC893"/>
</linearGradient>
</defs>
</svg>
