<svg width="26" height="26" viewBox="0 0 26 26" fill="none" xmlns="http://www.w3.org/2000/svg">
<path d="M22.2468 13.8799H20.2361C20.441 14.441 20.553 15.0466 20.553 15.6777V23.2772C20.553 23.5403 20.5072 23.7929 20.4239 24.0278H23.7481C24.9898 24.0278 26 23.0176 26 21.7759V17.6331C26.0001 15.5636 24.3163 13.8799 22.2468 13.8799Z" fill="url(#paint0_linear)"/>
<path d="M5.44706 15.6777C5.44706 15.0465 5.55903 14.441 5.76399 13.8799H3.75325C1.68371 13.8799 0 15.5636 0 17.6331V21.7759C0 23.0176 1.01019 24.0279 2.25195 24.0279H5.5762C5.49287 23.7929 5.44706 23.5403 5.44706 23.2772V15.6777Z" fill="url(#paint1_linear)"/>
<path d="M15.2984 11.9243H10.7016C8.63207 11.9243 6.94836 13.608 6.94836 15.6776V23.277C6.94836 23.6915 7.28443 24.0276 7.69901 24.0276H18.301C18.7156 24.0276 19.0517 23.6916 19.0517 23.277V15.6776C19.0517 13.608 17.368 11.9243 15.2984 11.9243Z" fill="url(#paint2_linear)"/>
<path d="M13 1.97266C10.5111 1.97266 8.48627 3.99751 8.48627 6.48646C8.48627 8.17468 9.41806 9.64912 10.7941 10.4232C11.4468 10.7904 12.1993 11.0002 13 11.0002C13.8007 11.0002 14.5532 10.7904 15.2059 10.4232C16.582 9.64912 17.5138 8.17463 17.5138 6.48646C17.5138 3.99756 15.4889 1.97266 13 1.97266Z" fill="url(#paint3_linear)"/>
<path d="M5.07398 6.17969C3.21259 6.17969 1.69829 7.69399 1.69829 9.55538C1.69829 11.4168 3.21259 12.9311 5.07398 12.9311C5.54614 12.9311 5.99576 12.8333 6.4042 12.6575C7.11036 12.3534 7.69262 11.8152 8.05291 11.1411C8.3058 10.668 8.44967 10.1282 8.44967 9.55538C8.44967 7.69404 6.93537 6.17969 5.07398 6.17969Z" fill="url(#paint4_linear)"/>
<path d="M20.9261 6.17969C19.0647 6.17969 17.5504 7.69399 17.5504 9.55538C17.5504 10.1283 17.6943 10.668 17.9471 11.1411C18.3074 11.8153 18.8897 12.3535 19.5959 12.6575C20.0043 12.8333 20.4539 12.9311 20.9261 12.9311C22.7875 12.9311 24.3018 11.4168 24.3018 9.55538C24.3018 7.69399 22.7875 6.17969 20.9261 6.17969Z" fill="url(#paint5_linear)"/>
<defs>
<linearGradient id="paint0_linear" x1="26" y1="24.0278" x2="13.5037" y2="23.2192" gradientUnits="userSpaceOnUse">
<stop stop-color="#B48C52"/>
<stop offset="1" stop-color="#ECC893"/>
</linearGradient>
<linearGradient id="paint1_linear" x1="5.76399" y1="24.0279" x2="-6.7324" y2="23.2193" gradientUnits="userSpaceOnUse">
<stop stop-color="#B48C52"/>
<stop offset="1" stop-color="#ECC893"/>
</linearGradient>
<linearGradient id="paint2_linear" x1="19.0517" y1="24.0276" x2="-6.96071" y2="21.0642" gradientUnits="userSpaceOnUse">
<stop stop-color="#B48C52"/>
<stop offset="1" stop-color="#ECC893"/>
</linearGradient>
<linearGradient id="paint3_linear" x1="17.5138" y1="11.0002" x2="-1.88808" y2="8.78987" gradientUnits="userSpaceOnUse">
<stop stop-color="#B48C52"/>
<stop offset="1" stop-color="#ECC893"/>
</linearGradient>
<linearGradient id="paint4_linear" x1="8.44967" y1="12.9311" x2="-6.06036" y2="11.278" gradientUnits="userSpaceOnUse">
<stop stop-color="#B48C52"/>
<stop offset="1" stop-color="#ECC893"/>
</linearGradient>
<linearGradient id="paint5_linear" x1="24.3018" y1="12.9311" x2="9.79174" y2="11.278" gradientUnits="userSpaceOnUse">
<stop stop-color="#B48C52"/>
<stop offset="1" stop-color="#ECC893"/>
</linearGradient>
</defs>
</svg>
