<svg width="29" height="29" viewBox="0 0 29 29" fill="none" xmlns="http://www.w3.org/2000/svg">
<g clip-path="url(#clip0)">
<path d="M21.0086 16.0057C20.7633 16.466 20.3112 16.7493 19.8189 16.7493H9.17813C8.6881 16.7493 8.23451 16.466 7.98913 16.0057C7.74374 15.5469 7.74374 14.9788 7.98913 14.5185L10.6497 9.52755C10.8943 9.06727 11.3472 8.78396 11.8387 8.78396H17.1576C17.6476 8.78396 18.1012 9.06727 18.3466 9.52755L21.0072 14.5185C21.254 14.9803 21.254 15.5469 21.0086 16.0057ZM13.2009 23.6275L10.5411 18.6373C10.2957 18.177 9.8429 17.8937 9.35213 17.8937H4.03249C3.54246 17.8937 3.08887 18.177 2.84423 18.6373L0.183667 23.6275C-0.0617181 24.0878 -0.0617181 24.6559 0.183667 25.1147C0.429051 25.575 0.881154 25.8583 1.37267 25.8583H12.0119C12.502 25.8583 12.9563 25.575 13.2009 25.1147C13.4463 24.6559 13.4463 24.0893 13.2009 23.6275ZM28.8156 23.6275L26.155 18.6373C25.9096 18.177 25.4575 17.8937 24.9668 17.8937H19.6471C19.1571 17.8937 18.7028 18.177 18.4581 18.6373L15.7983 23.6275C15.5529 24.0878 15.5529 24.6559 15.7983 25.1147C16.0429 25.575 16.4958 25.8583 16.9866 25.8583H27.6266C28.1174 25.8583 28.5717 25.575 28.8163 25.1147C29.0617 24.6559 29.0617 24.0893 28.8156 23.6275ZM23.8819 9.27101L23.4067 11.4973L21.1789 11.9717L23.4067 12.4454L23.8819 14.6717L24.3563 12.4454L26.5841 11.9717L24.3563 11.4973L23.8819 9.27101ZM6.60902 6.67365L6.13461 8.89922L3.90682 9.37363L6.13461 9.84729L6.60902 12.0736L7.08344 9.84729L9.31123 9.37363L7.08344 8.89922L6.60902 6.67365ZM17.9495 3.1416L17.4744 5.36717L15.2466 5.84158L17.4744 6.31599L17.9495 8.54229L18.4239 6.31599L20.6517 5.84232L18.4239 5.36791L17.9495 3.1416Z" fill="url(#paint0_linear)"/>
</g>
<defs>
<linearGradient id="paint0_linear" x1="29.0003" y1="25.8583" x2="-32.8288" y2="16.8659" gradientUnits="userSpaceOnUse">
<stop stop-color="#B48C52"/>
<stop offset="1" stop-color="#ECC893"/>
</linearGradient>
<clipPath id="clip0">
<rect width="29" height="29" fill="white"/>
</clipPath>
</defs>
</svg>
